<mxfile host="app.diagrams.net" modified="2023-03-26T13:29:35.628Z" agent="Mozilla/5.0 (Macintosh; Intel Mac OS X 10.15; rv:109.0) Gecko/20100101 Firefox/111.0" etag="-UvrEuN1Zo97vDy18Olh" version="21.1.1" type="github">
  <diagram name="Page-1" id="e7e014a7-5840-1c2e-5031-d8a46d1fe8dd">
    <mxGraphModel dx="1257" dy="732" grid="1" gridSize="10" guides="1" tooltips="1" connect="1" arrows="1" fold="1" page="1" pageScale="1" pageWidth="1169" pageHeight="826" background="none" math="0" shadow="0">
      <root>
        <mxCell id="0" />
        <mxCell id="1" parent="0" />
        <mxCell id="2" value="User" style="swimlane;whiteSpace=wrap" parent="1" vertex="1">
          <mxGeometry x="164.5" y="128" width="280" height="570" as="geometry" />
        </mxCell>
        <mxCell id="dnYrS-GxjxIcOOzHjGN5-45" style="edgeStyle=orthogonalEdgeStyle;rounded=0;orthogonalLoop=1;jettySize=auto;html=1;entryX=0.5;entryY=0;entryDx=0;entryDy=0;strokeColor=#FF0000;" edge="1" parent="2" source="5" target="dnYrS-GxjxIcOOzHjGN5-41">
          <mxGeometry relative="1" as="geometry" />
        </mxCell>
        <mxCell id="5" value="" style="ellipse;shape=startState;fillColor=#000000;strokeColor=#ff0000;" parent="2" vertex="1">
          <mxGeometry x="100" y="40" width="30" height="30" as="geometry" />
        </mxCell>
        <mxCell id="dnYrS-GxjxIcOOzHjGN5-41" value="User memasuki halmaan profile" style="rounded=1;whiteSpace=wrap;html=1;arcSize=40;fontColor=#000000;fillColor=#ffffc0;strokeColor=#ff0000;" vertex="1" parent="2">
          <mxGeometry x="55" y="112" width="120" height="40" as="geometry" />
        </mxCell>
        <mxCell id="dnYrS-GxjxIcOOzHjGN5-46" value="User memasuki halaman masukan" style="rounded=1;whiteSpace=wrap;html=1;arcSize=40;fontColor=#000000;fillColor=#ffffc0;strokeColor=#ff0000;" vertex="1" parent="2">
          <mxGeometry x="55" y="192" width="120" height="40" as="geometry" />
        </mxCell>
        <mxCell id="dnYrS-GxjxIcOOzHjGN5-50" value="User menginputkan field subjek dan masukan" style="rounded=1;whiteSpace=wrap;html=1;arcSize=40;fontColor=#000000;fillColor=#ffffc0;strokeColor=#ff0000;" vertex="1" parent="2">
          <mxGeometry x="55" y="272" width="120" height="40" as="geometry" />
        </mxCell>
        <mxCell id="3" value="System" style="swimlane;whiteSpace=wrap" parent="1" vertex="1">
          <mxGeometry x="444.5" y="128" width="280" height="570" as="geometry" />
        </mxCell>
        <mxCell id="dnYrS-GxjxIcOOzHjGN5-43" value="Tampil halaman profile" style="rounded=1;whiteSpace=wrap;html=1;arcSize=40;fontColor=#000000;fillColor=#ffffc0;strokeColor=#ff0000;" vertex="1" parent="3">
          <mxGeometry x="80.5" y="112" width="120" height="40" as="geometry" />
        </mxCell>
        <mxCell id="dnYrS-GxjxIcOOzHjGN5-48" value="Tampil halaman masukan" style="rounded=1;whiteSpace=wrap;html=1;arcSize=40;fontColor=#000000;fillColor=#ffffc0;strokeColor=#ff0000;" vertex="1" parent="3">
          <mxGeometry x="80.5" y="192" width="120" height="40" as="geometry" />
        </mxCell>
        <mxCell id="dnYrS-GxjxIcOOzHjGN5-52" value="Terima inputan dari user dan kirimkan ke third party" style="rounded=1;whiteSpace=wrap;html=1;arcSize=40;fontColor=#000000;fillColor=#ffffc0;strokeColor=#ff0000;" vertex="1" parent="3">
          <mxGeometry x="80.5" y="272" width="120" height="40" as="geometry" />
        </mxCell>
        <mxCell id="dnYrS-GxjxIcOOzHjGN5-53" value="" style="edgeStyle=orthogonalEdgeStyle;html=1;verticalAlign=bottom;endArrow=open;endSize=8;strokeColor=#ff0000;rounded=0;entryX=0.5;entryY=0;entryDx=0;entryDy=0;" edge="1" source="dnYrS-GxjxIcOOzHjGN5-52" parent="3" target="dnYrS-GxjxIcOOzHjGN5-54">
          <mxGeometry relative="1" as="geometry">
            <mxPoint x="140.5" y="372" as="targetPoint" />
          </mxGeometry>
        </mxCell>
        <mxCell id="dnYrS-GxjxIcOOzHjGN5-54" value="Validasi" style="rhombus;whiteSpace=wrap;html=1;fontColor=#000000;fillColor=#ffffc0;strokeColor=#ff0000;" vertex="1" parent="3">
          <mxGeometry x="100.5" y="352" width="80" height="40" as="geometry" />
        </mxCell>
        <mxCell id="dnYrS-GxjxIcOOzHjGN5-55" value="no" style="edgeStyle=orthogonalEdgeStyle;html=1;align=left;verticalAlign=bottom;endArrow=open;endSize=8;strokeColor=#ff0000;rounded=0;exitX=1;exitY=0.5;exitDx=0;exitDy=0;" edge="1" source="dnYrS-GxjxIcOOzHjGN5-54" parent="3" target="dnYrS-GxjxIcOOzHjGN5-60">
          <mxGeometry x="-1" relative="1" as="geometry">
            <mxPoint x="245.5" y="392" as="targetPoint" />
          </mxGeometry>
        </mxCell>
        <mxCell id="dnYrS-GxjxIcOOzHjGN5-56" value="yes" style="edgeStyle=orthogonalEdgeStyle;html=1;align=left;verticalAlign=top;endArrow=open;endSize=8;strokeColor=#ff0000;rounded=0;entryX=0.5;entryY=0;entryDx=0;entryDy=0;" edge="1" source="dnYrS-GxjxIcOOzHjGN5-54" parent="3" target="dnYrS-GxjxIcOOzHjGN5-58">
          <mxGeometry x="-1" relative="1" as="geometry">
            <mxPoint x="105.5" y="472" as="targetPoint" />
          </mxGeometry>
        </mxCell>
        <mxCell id="dnYrS-GxjxIcOOzHjGN5-58" value="Tampil snackbar sukses mengirim masukan" style="rounded=1;whiteSpace=wrap;html=1;arcSize=40;fontColor=#000000;fillColor=#ffffc0;strokeColor=#ff0000;" vertex="1" parent="3">
          <mxGeometry x="15.5" y="412" width="120" height="40" as="geometry" />
        </mxCell>
        <mxCell id="dnYrS-GxjxIcOOzHjGN5-59" value="" style="edgeStyle=orthogonalEdgeStyle;html=1;verticalAlign=bottom;endArrow=open;endSize=8;strokeColor=#ff0000;rounded=0;entryX=0;entryY=0.5;entryDx=0;entryDy=0;" edge="1" source="dnYrS-GxjxIcOOzHjGN5-58" parent="3" target="dnYrS-GxjxIcOOzHjGN5-62">
          <mxGeometry relative="1" as="geometry">
            <mxPoint x="95.5" y="522" as="targetPoint" />
          </mxGeometry>
        </mxCell>
        <mxCell id="dnYrS-GxjxIcOOzHjGN5-60" value="Tampil snackbar gagal mengirim masukan" style="rounded=1;whiteSpace=wrap;html=1;arcSize=40;fontColor=#000000;fillColor=#ffffc0;strokeColor=#ff0000;" vertex="1" parent="3">
          <mxGeometry x="145.5" y="412" width="120" height="40" as="geometry" />
        </mxCell>
        <mxCell id="dnYrS-GxjxIcOOzHjGN5-61" value="" style="edgeStyle=orthogonalEdgeStyle;html=1;verticalAlign=bottom;endArrow=open;endSize=8;strokeColor=#ff0000;rounded=0;entryX=1;entryY=0.5;entryDx=0;entryDy=0;" edge="1" source="dnYrS-GxjxIcOOzHjGN5-60" parent="3" target="dnYrS-GxjxIcOOzHjGN5-62">
          <mxGeometry relative="1" as="geometry">
            <mxPoint x="205.5" y="512" as="targetPoint" />
          </mxGeometry>
        </mxCell>
        <mxCell id="dnYrS-GxjxIcOOzHjGN5-62" value="" style="ellipse;html=1;shape=endState;fillColor=#000000;strokeColor=#ff0000;" vertex="1" parent="3">
          <mxGeometry x="135.5" y="502" width="30" height="30" as="geometry" />
        </mxCell>
        <mxCell id="dnYrS-GxjxIcOOzHjGN5-42" value="" style="edgeStyle=orthogonalEdgeStyle;html=1;verticalAlign=bottom;endArrow=open;endSize=8;strokeColor=#ff0000;rounded=0;entryX=0;entryY=0.5;entryDx=0;entryDy=0;" edge="1" source="dnYrS-GxjxIcOOzHjGN5-41" parent="1" target="dnYrS-GxjxIcOOzHjGN5-43">
          <mxGeometry relative="1" as="geometry">
            <mxPoint x="279.5" y="340" as="targetPoint" />
          </mxGeometry>
        </mxCell>
        <mxCell id="dnYrS-GxjxIcOOzHjGN5-44" value="" style="edgeStyle=orthogonalEdgeStyle;html=1;verticalAlign=bottom;endArrow=open;endSize=8;strokeColor=#ff0000;rounded=0;entryX=0.5;entryY=0;entryDx=0;entryDy=0;" edge="1" source="dnYrS-GxjxIcOOzHjGN5-43" parent="1" target="dnYrS-GxjxIcOOzHjGN5-46">
          <mxGeometry relative="1" as="geometry">
            <mxPoint x="585" y="340" as="targetPoint" />
            <Array as="points">
              <mxPoint x="585" y="290" />
              <mxPoint x="279" y="290" />
            </Array>
          </mxGeometry>
        </mxCell>
        <mxCell id="dnYrS-GxjxIcOOzHjGN5-47" value="" style="edgeStyle=orthogonalEdgeStyle;html=1;verticalAlign=bottom;endArrow=open;endSize=8;strokeColor=#ff0000;rounded=0;entryX=0;entryY=0.5;entryDx=0;entryDy=0;" edge="1" source="dnYrS-GxjxIcOOzHjGN5-46" parent="1" target="dnYrS-GxjxIcOOzHjGN5-48">
          <mxGeometry relative="1" as="geometry">
            <mxPoint x="279.5" y="420" as="targetPoint" />
          </mxGeometry>
        </mxCell>
        <mxCell id="dnYrS-GxjxIcOOzHjGN5-49" value="" style="edgeStyle=orthogonalEdgeStyle;html=1;verticalAlign=bottom;endArrow=open;endSize=8;strokeColor=#ff0000;rounded=0;" edge="1" source="dnYrS-GxjxIcOOzHjGN5-48" parent="1" target="dnYrS-GxjxIcOOzHjGN5-50">
          <mxGeometry relative="1" as="geometry">
            <mxPoint x="585" y="420" as="targetPoint" />
            <Array as="points">
              <mxPoint x="585" y="380" />
              <mxPoint x="279" y="380" />
            </Array>
          </mxGeometry>
        </mxCell>
        <mxCell id="dnYrS-GxjxIcOOzHjGN5-51" value="" style="edgeStyle=orthogonalEdgeStyle;html=1;verticalAlign=bottom;endArrow=open;endSize=8;strokeColor=#ff0000;rounded=0;entryX=0;entryY=0.5;entryDx=0;entryDy=0;" edge="1" source="dnYrS-GxjxIcOOzHjGN5-50" parent="1" target="dnYrS-GxjxIcOOzHjGN5-52">
          <mxGeometry relative="1" as="geometry">
            <mxPoint x="279.5" y="500" as="targetPoint" />
          </mxGeometry>
        </mxCell>
      </root>
    </mxGraphModel>
  </diagram>
</mxfile>
